<svg width="293" height="50" viewBox="0 0 293 50" fill="none" xmlns="http://www.w3.org/2000/svg">
<path d="M0.5 10C0.5 4.75329 4.7533 0.5 10 0.5H283C288.247 0.5 292.5 4.75329 292.5 10V40C292.5 45.2467 288.247 49.5 283 49.5H10C4.75329 49.5 0.5 45.2467 0.5 40V10Z" fill="white" stroke="url(#paint0_linear)"/>
<path d="M89.0011 29.3169C89.1588 31.6826 91.1256 33.2227 93.9645 33.2227C97.0446 33.2227 98.9743 31.6919 98.9743 29.2427C98.9743 27.3223 97.8517 26.2554 95.0778 25.5596L93.6769 25.1885C91.8586 24.7153 91.1164 24.1123 91.1164 23.1011C91.1164 21.793 92.3224 20.8931 94.0573 20.8931C95.8014 20.8931 96.9611 21.7744 97.1095 23.2124H98.7794C98.7052 20.9673 96.7755 19.3901 94.1129 19.3901C91.3297 19.3901 89.3815 20.9487 89.3815 23.1753C89.3815 24.9937 90.4762 26.0791 92.944 26.71L94.6603 27.1553C96.4601 27.6191 97.2487 28.3149 97.2487 29.4468C97.2487 30.7642 95.9313 31.7197 94.1222 31.7197C92.2111 31.7197 90.838 30.7642 90.6803 29.3169H89.0011ZM100.646 33H102.26V22.999H100.646V33ZM101.453 21.3848C102.019 21.3848 102.474 20.9209 102.474 20.3643C102.474 19.7983 102.019 19.3438 101.453 19.3438C100.897 19.3438 100.433 19.7983 100.433 20.3643C100.433 20.9209 100.897 21.3848 101.453 21.3848ZM108.423 31.562C106.678 31.562 105.537 30.1426 105.537 27.9624C105.537 25.7729 106.678 24.3442 108.423 24.3442C110.176 24.3442 111.364 25.8101 111.364 27.9624C111.364 30.1055 110.176 31.562 108.423 31.562ZM108.45 36.5718C111.261 36.5718 112.978 35.1152 112.978 32.7217V22.999H111.438V24.6226H111.41C110.742 23.5278 109.564 22.9062 108.154 22.9062C105.584 22.9062 103.886 24.9102 103.886 27.9624C103.886 30.9868 105.584 33 108.116 33C109.517 33 110.696 32.3691 111.326 31.2837H111.364V32.8516C111.364 34.271 110.269 35.1709 108.543 35.1709C107.226 35.1709 106.233 34.6514 105.992 33.8164H104.313C104.545 35.4771 106.187 36.5718 108.45 36.5718ZM115.011 33H116.626V27.1924C116.626 25.4761 117.711 24.3442 119.353 24.3442C120.93 24.3442 121.784 25.2349 121.784 26.8677V33H123.398V26.5894C123.398 24.3164 122.034 22.9062 119.836 22.9062C118.286 22.9062 117.201 23.4907 116.57 24.6226H116.533V22.999H115.011V33ZM129.859 33H131.473V22.999H129.859V33ZM130.666 21.3848C131.232 21.3848 131.687 20.9209 131.687 20.3643C131.687 19.7983 131.232 19.3438 130.666 19.3438C130.11 19.3438 129.646 19.7983 129.646 20.3643C129.646 20.9209 130.11 21.3848 130.666 21.3848ZM133.591 33H135.205V27.1924C135.205 25.4761 136.29 24.3442 137.933 24.3442C139.51 24.3442 140.363 25.2349 140.363 26.8677V33H141.977V26.5894C141.977 24.3164 140.614 22.9062 138.415 22.9062C136.866 22.9062 135.78 23.4907 135.149 24.6226H135.112V22.999H133.591V33ZM161 22.999H159.404L157.373 31.1724H157.335L155.044 22.999H153.485L151.194 31.1724H151.157L149.125 22.999H147.529L150.331 33H151.964L154.246 25.2256H154.283L156.565 33H158.198L161 22.999ZM162.301 33H163.915V22.999H162.301V33ZM163.108 21.3848C163.674 21.3848 164.128 20.9209 164.128 20.3643C164.128 19.7983 163.674 19.3438 163.108 19.3438C162.551 19.3438 162.087 19.7983 162.087 20.3643C162.087 20.9209 162.551 21.3848 163.108 21.3848ZM166.561 20.7446V22.999H165.169V24.335H166.561V30.4023C166.561 32.3228 167.266 33.0742 169.075 33.0742C169.456 33.0742 169.919 33.0371 170.114 32.9907V31.627C170.003 31.6455 169.613 31.6733 169.419 31.6733C168.565 31.6733 168.175 31.2559 168.175 30.3374V24.335H170.124V22.999H168.175V20.7446H166.561ZM171.842 33H173.456V27.248C173.456 25.4946 174.588 24.3442 176.276 24.3442C177.863 24.3442 178.809 25.3091 178.809 26.9048V33H180.423V26.6172C180.423 24.3906 178.948 22.9062 176.759 22.9062C175.228 22.9062 174.115 23.4907 173.493 24.6226H173.456V19.0283H171.842V33ZM195.689 33H197.442L192.507 19.6128H190.855L185.92 33H187.673L189.018 29.1685H194.343L195.689 33ZM191.653 21.6445H191.709L193.852 27.749H189.51L191.653 21.6445ZM203.409 22.9062C202.027 22.9062 200.756 23.5835 200.172 24.6226H200.134V22.999H198.604V36.3398H200.218V31.3765H200.255C200.886 32.4712 202.027 33.0928 203.447 33.0928C205.97 33.0928 207.696 31.0518 207.696 27.9995C207.696 24.9473 205.961 22.9062 203.409 22.9062ZM203.113 31.6548C201.387 31.6548 200.209 30.1797 200.209 27.9995C200.209 25.8286 201.387 24.3442 203.113 24.3442C204.875 24.3442 206.044 25.7915 206.044 27.9995C206.044 30.2168 204.875 31.6548 203.113 31.6548ZM214.043 22.9062C212.661 22.9062 211.39 23.5835 210.805 24.6226H210.768V22.999H209.238V36.3398H210.852V31.3765H210.889C211.52 32.4712 212.661 33.0928 214.08 33.0928C216.604 33.0928 218.329 31.0518 218.329 27.9995C218.329 24.9473 216.594 22.9062 214.043 22.9062ZM213.746 31.6548C212.021 31.6548 210.843 30.1797 210.843 27.9995C210.843 25.8286 212.021 24.3442 213.746 24.3442C215.509 24.3442 216.678 25.7915 216.678 27.9995C216.678 30.2168 215.509 31.6548 213.746 31.6548ZM219.964 33H221.578V19.0283H219.964V33ZM227.685 24.3257C229.262 24.3257 230.338 25.4575 230.375 27.1553H224.874C224.985 25.4668 226.117 24.3257 227.685 24.3257ZM230.338 30.1426C230.051 31.0796 229.077 31.6733 227.824 31.6733C226.043 31.6733 224.874 30.4395 224.874 28.5376V28.4448H232.055V27.814C232.055 24.7896 230.385 22.9062 227.713 22.9062C224.985 22.9062 223.204 24.938 223.204 28.0366C223.204 31.1353 224.976 33.0928 227.787 33.0928C229.921 33.0928 231.656 31.8589 231.934 30.1426H230.338Z" fill="black"/>
<g clip-path="url(#clip0)">
<path d="M76.6437 30.5863C76.3385 31.2851 75.9772 31.9283 75.5586 32.5196C74.988 33.3257 74.5209 33.8837 74.1608 34.1936C73.6027 34.7022 73.0048 34.9627 72.3644 34.9775C71.9047 34.9775 71.3504 34.8479 70.705 34.585C70.0576 34.3232 69.4626 34.1936 68.9186 34.1936C68.348 34.1936 67.7361 34.3232 67.0815 34.585C66.426 34.8479 65.8979 34.9849 65.4942 34.9985C64.8801 35.0245 64.2681 34.7566 63.6571 34.1936C63.2672 33.8566 62.7795 33.2788 62.1952 32.4603C61.5683 31.5863 61.0529 30.5727 60.6492 29.4172C60.2168 28.1691 60 26.9605 60 25.7904C60 24.4501 60.2923 23.2941 60.8777 22.3253C61.3377 21.5472 61.9498 20.9334 62.7158 20.4828C63.4818 20.0322 64.3095 19.8026 65.2009 19.7879C65.6886 19.7879 66.3282 19.9374 67.123 20.2312C67.9156 20.526 68.4245 20.6755 68.6476 20.6755C68.8144 20.6755 69.3798 20.5007 70.3382 20.1522C71.2445 19.829 72.0094 19.6952 72.636 19.7479C74.334 19.8837 75.6097 20.547 76.4581 21.742C74.9395 22.6538 74.1883 23.931 74.2032 25.5693C74.2169 26.8454 74.6841 27.9074 75.6022 28.7506C76.0183 29.1419 76.483 29.4444 77 29.6592C76.8879 29.9814 76.7695 30.29 76.6437 30.5863ZM72.7494 15.4004C72.7494 16.4006 72.3806 17.3345 71.6456 18.1989C70.7586 19.2265 69.6857 19.8203 68.5223 19.7266C68.5075 19.6066 68.4989 19.4804 68.4989 19.3476C68.4989 18.3874 68.9207 17.3598 69.6698 16.5196C70.0438 16.0942 70.5194 15.7404 71.0962 15.4583C71.6718 15.1803 72.2162 15.0266 72.7282 15.0002C72.7431 15.134 72.7494 15.2677 72.7494 15.4003V15.4004Z" fill="black"/>
</g>
<defs>
<linearGradient id="paint0_linear" x1="293" y1="-1.83398" x2="195.113" y2="167.967" gradientUnits="userSpaceOnUse">
<stop stop-color="#18181D"/>
<stop offset="1" stop-color="#2B2B2C"/>
</linearGradient>
<clipPath id="clip0">
<rect width="17" height="20" fill="white" transform="translate(60 15)"/>
</clipPath>
</defs>
</svg>
