<svg width="32" height="32" viewBox="0 0 32 32" fill="none" xmlns="http://www.w3.org/2000/svg">
<path d="M30.9579 17.6981C30.9578 17.6979 30.9578 17.6979 30.9577 17.6977L25.2936 3.4756C25.1734 3.17342 24.8309 3.0259 24.5287 3.14611C24.5285 3.14618 24.5283 3.14626 24.5281 3.1464L1.54945 12.2963C1.45574 12.3368 1.37447 12.4014 1.31389 12.4835C1.12279 12.5828 1.00206 12.7794 1 12.9947V28.3063C1 28.6315 1.26368 28.8952 1.58891 28.8952H26.323C26.6483 28.8952 26.9119 28.6315 26.9119 28.3063V19.9438L30.6291 18.4633C30.9312 18.3428 31.0784 18.0002 30.9579 17.6981ZM25.7341 27.7174H2.17782V13.5836H25.7341V27.7174ZM10.8259 12.4087L20.6866 8.47955C21.5667 9.40458 22.7861 9.93033 24.0628 9.93533L25.0463 12.4087H10.8259ZM26.9119 18.6788V12.9947C26.9119 12.6695 26.6483 12.4058 26.323 12.4058H26.3136L25.0657 9.27163C25.0519 9.2455 25.0358 9.22062 25.0174 9.19743C24.9543 8.9138 24.6916 8.72027 24.402 8.74397C23.214 8.85226 22.0519 8.35183 21.3144 7.41422C21.1309 7.18771 20.8083 7.1314 20.5588 7.2823C20.5308 7.28562 20.5031 7.29077 20.4758 7.29762L8.43732 12.0913C8.29164 12.1484 8.17511 12.2617 8.11401 12.4058H4.45807L24.4173 4.45849L29.6462 17.5882L26.9119 18.6788Z" fill="black"/>
<path d="M3.77595 23.7417C4.91931 24.0797 5.81401 24.9733 6.15337 26.1162C6.22779 26.3657 6.45725 26.5366 6.71754 26.5367C6.74809 26.5348 6.77842 26.5302 6.80824 26.5231C6.83466 26.5306 6.86168 26.5362 6.88892 26.5396H21.0227C21.047 26.5365 21.071 26.5315 21.0946 26.5249C21.3888 26.5964 21.6853 26.416 21.7569 26.1218C21.7571 26.1207 21.7574 26.1197 21.7577 26.1185C22.0961 24.9744 22.991 24.0796 24.1351 23.7411C24.4125 23.6563 24.5849 23.3798 24.5391 23.0933C24.547 23.0648 24.5526 23.0356 24.5562 23.0062V18.2949C24.5527 18.2654 24.5468 18.2362 24.5385 18.2078C24.5846 17.9212 24.4122 17.6445 24.1345 17.56C22.9904 17.2216 22.0958 16.3263 21.7583 15.182C21.673 14.9026 21.3938 14.7297 21.1057 14.778C21.0785 14.7704 21.0508 14.7649 21.0227 14.7615H6.88892C6.85925 14.765 6.82988 14.7709 6.80117 14.7791C6.51474 14.7335 6.23839 14.9058 6.15337 15.1831C5.81467 16.327 4.9199 17.2216 3.77595 17.56C3.4985 17.6448 3.3261 17.9213 3.37196 18.2078C3.3643 18.2364 3.35878 18.2655 3.35547 18.2949V23.0062C3.35885 23.0339 3.36438 23.0612 3.37196 23.088C3.32367 23.3764 3.49644 23.656 3.77595 23.7417ZM4.53328 18.534C5.71581 18.0591 6.65306 17.1218 7.12801 15.9393H20.783C21.2582 17.1218 22.1957 18.0591 23.3783 18.534V22.7671C22.1962 23.2425 21.2591 24.1796 20.7836 25.3618H7.12801C6.65254 24.1796 5.71544 23.2425 4.53328 22.7671V18.534Z" fill="black"/>
<path d="M13.9563 24.1841C15.9078 24.1841 17.4897 22.6021 17.4897 20.6506C17.4897 18.6991 15.9078 17.1172 13.9563 17.1172C12.0048 17.1172 10.4229 18.6991 10.4229 20.6506C10.4248 22.6013 12.0056 24.1822 13.9563 24.1841ZM13.9563 18.295C15.2573 18.295 16.3119 19.3497 16.3119 20.6506C16.3119 21.9516 15.2573 23.0063 13.9563 23.0063C12.6553 23.0063 11.6007 21.9516 11.6007 20.6506C11.6007 19.3497 12.6553 18.295 13.9563 18.295Z" fill="black"/>
</svg>
