<svg width="32" height="32" viewBox="0 0 32 32" fill="none" xmlns="http://www.w3.org/2000/svg">
<path d="M28.1556 6.85718H3.84388C2.35199 6.85718 1.14258 7.88053 1.14258 9.14289V22.8572C1.14258 24.1195 2.35199 25.1429 3.84388 25.1429H28.1556C29.6475 25.1429 30.8569 24.1195 30.8569 22.8572V9.14289C30.8569 7.88053 29.6475 6.85718 28.1556 6.85718Z" stroke="#1D1D1D" stroke-linecap="round" stroke-linejoin="round"/>
<path d="M16.6797 16.9961V19H15.5078V13.3125H17.7266C18.1536 13.3125 18.5286 13.3906 18.8516 13.5469C19.1771 13.7031 19.4271 13.9258 19.6016 14.2148C19.776 14.5013 19.8633 14.8281 19.8633 15.1953C19.8633 15.7526 19.6719 16.1927 19.2891 16.5156C18.9089 16.8359 18.3815 16.9961 17.707 16.9961H16.6797ZM16.6797 16.0469H17.7266C18.0365 16.0469 18.2721 15.974 18.4336 15.8281C18.5977 15.6823 18.6797 15.474 18.6797 15.2031C18.6797 14.9245 18.5977 14.6992 18.4336 14.5273C18.2695 14.3555 18.043 14.2669 17.7539 14.2617H16.6797V16.0469Z" fill="#1D1D1D"/>
<path d="M22.835 19C22.7829 18.8984 22.7452 18.7721 22.7217 18.6211C22.4483 18.9258 22.0928 19.0781 21.6553 19.0781C21.2413 19.0781 20.8975 18.9583 20.6241 18.7188C20.3532 18.4792 20.2178 18.1771 20.2178 17.8125C20.2178 17.3646 20.3832 17.0208 20.7139 16.7812C21.0472 16.5417 21.5277 16.4206 22.1553 16.418H22.6748V16.1758C22.6748 15.9805 22.6241 15.8242 22.5225 15.707C22.4235 15.5898 22.266 15.5312 22.0498 15.5312C21.8597 15.5312 21.71 15.5768 21.6006 15.668C21.4939 15.7591 21.4405 15.8841 21.4405 16.043H20.3116C20.3116 15.7982 20.3871 15.5716 20.5381 15.3633C20.6892 15.1549 20.9027 14.9922 21.1788 14.875C21.4548 14.7552 21.7647 14.6953 22.1084 14.6953C22.6293 14.6953 23.042 14.8268 23.3467 15.0898C23.654 15.3503 23.8077 15.7174 23.8077 16.1914V18.0234C23.8103 18.4245 23.8663 18.7279 23.9756 18.9336V19H22.835ZM21.9014 18.2148C22.0681 18.2148 22.2217 18.1784 22.3623 18.1055C22.503 18.0299 22.6071 17.9297 22.6748 17.8047V17.0781H22.253C21.6879 17.0781 21.3871 17.2734 21.3506 17.6641L21.3467 17.7305C21.3467 17.8711 21.3962 17.987 21.4952 18.0781C21.5941 18.1693 21.7295 18.2148 21.9014 18.2148Z" fill="#1D1D1D"/>
<path d="M26.0255 17.4023L26.8067 14.7734H28.0177L26.3184 19.6562L26.2247 19.8789C25.9721 20.431 25.5554 20.707 24.9747 20.707C24.8106 20.707 24.644 20.6823 24.4747 20.6328V19.7773L24.6466 19.7812C24.8601 19.7812 25.019 19.7487 25.1231 19.6836C25.2299 19.6185 25.3132 19.5104 25.3731 19.3594L25.5059 19.0117L24.0255 14.7734H25.2403L26.0255 17.4023Z" fill="#1D1D1D"/>
<path d="M8.43082 13.4991L8.4312 13.4992L8.4358 13.5009C8.55258 13.5439 8.68655 13.5932 8.80996 13.6314C8.92117 13.6658 9.08243 13.7108 9.23472 13.7108C9.31964 13.7108 9.39646 13.6931 9.4402 13.6819C9.49175 13.6687 9.54392 13.6519 9.59101 13.6356C9.68032 13.6046 9.77871 13.5657 9.86003 13.5335L9.87131 13.529L9.87219 13.5287C10.2476 13.3792 10.6241 13.2344 11.0512 13.2344H11.0512H11.0512H11.0512H11.0513H11.0513H11.0513H11.0513H11.0513H11.0513H11.0513H11.0513H11.0513H11.0513H11.0513H11.0513H11.0513H11.0513H11.0513H11.0513H11.0513H11.0513H11.0514H11.0514H11.0514H11.0514H11.0514H11.0514H11.0514H11.0514H11.0514H11.0514H11.0514H11.0514H11.0514H11.0514H11.0514H11.0514H11.0514H11.0515H11.0515H11.0515H11.0515H11.0515H11.0515H11.0515H11.0515H11.0515H11.0515H11.0515H11.0515H11.0515H11.0515H11.0515H11.0515H11.0515H11.0516H11.0516H11.0516H11.0516H11.0516H11.0516H11.0516H11.0516H11.0516H11.0516H11.0516H11.0516H11.0516H11.0516H11.0516H11.0516H11.0516H11.0517H11.0517H11.0517H11.0517H11.0517H11.0517H11.0517H11.0517H11.0517H11.0517H11.0517H11.0517H11.0517H11.0517H11.0517H11.0517H11.0518H11.0518H11.0518H11.0518H11.0518H11.0518H11.0518H11.0518H11.0518H11.0518H11.0518H11.0518H11.0518H11.0518H11.0518H11.0518H11.0519H11.0519H11.0519H11.0519H11.0519H11.0519H11.0519H11.0519H11.0519H11.0519H11.0519H11.0519H11.0519H11.0519H11.0519H11.0519H11.052H11.052H11.052H11.052H11.052H11.052H11.052H11.052H11.052H11.052H11.052H11.052H11.052H11.052H11.052H11.052H11.0521H11.0521H11.0521H11.0521H11.0521H11.0521H11.0521H11.0521H11.0521H11.0521H11.0521H11.0521H11.0521H11.0521H11.0521H11.0521H11.0522H11.0522H11.0522H11.0522H11.0522H11.0522H11.0522H11.0522H11.0522H11.0522H11.0522H11.0522H11.0522H11.0522H11.0522H11.0523H11.0523H11.0523H11.0523H11.0523H11.0523H11.0523H11.0523H11.0523H11.0523H11.0523H11.0523H11.0523H11.0523H11.0523H11.0523H11.0524H11.0524H11.0524H11.0524H11.0524H11.0524H11.0524H11.0524H11.0524H11.0524H11.0524H11.0524H11.0524H11.0524H11.0524H11.0525H11.0525H11.0525H11.0525H11.0525H11.0525H11.0525H11.0525H11.0525H11.0525H11.0525H11.0525H11.0525H11.0525H11.0525H11.0526H11.0526H11.0526H11.0526H11.0526H11.0526H11.0526H11.0526H11.0526H11.0526H11.0526H11.0526H11.0526H11.0526H11.0526H11.0526H11.0527H11.0527H11.0527H11.0527H11.0527H11.0527H11.0527H11.0527H11.0527H11.0527H11.0527H11.0527H11.0527H11.0527H11.0527H11.0528H11.0528H11.0528H11.0528H11.0528H11.0528H11.0528H11.0528H11.0528H11.0528H11.0528H11.0528H11.0528H11.0528H11.0528H11.0529H11.0529H11.0529H11.0529H11.0529H11.0529H11.0529H11.0529H11.0529H11.0529H11.0529H11.0529H11.0529H11.0529H11.0529H11.0529H11.053H11.053H11.053H11.053H11.053H11.053H11.053H11.053H11.053H11.053H11.053H11.053H11.053H11.053H11.053H11.0531H11.0531H11.0531H11.0531H11.0531H11.0531H11.0531H11.0531H11.0531H11.0531H11.0531H11.0531H11.0531H11.0531H11.0531H11.0532H11.0532H11.0532H11.0532H11.0532H11.0532H11.0532H11.0532H11.0532H11.0532H11.0532H11.0532H11.0532H11.0532H11.0532H11.0532H11.0533H11.0533H11.0533H11.0533H11.0533H11.0533H11.0533H11.0533H11.0533H11.0533H11.0533H11.0533H11.0533H11.0533H11.0533H11.0534H11.0534H11.0534H11.0534H11.0534H11.0534H11.0534H11.0534H11.0534H11.0534H11.0534H11.0534H11.0534H11.0534H11.0534H11.0534H11.0535H11.0535H11.0535H11.0535H11.0535H11.0535H11.0535H11.0535H11.0535H11.0535H11.0535H11.0535H11.0535H11.0535H11.0535H11.0535H11.0536H11.0536H11.0536H11.0536H11.0536H11.0536H11.0536H11.0536H11.0536H11.0536H11.0536H11.0536H11.0536H11.0536H11.0536H11.0536H11.0537H11.0537H11.0537H11.0537H11.0537H11.0537H11.0537H11.0537H11.0537H11.0537H11.0537H11.0537H11.0537H11.0537H11.0537H11.0537H11.0538H11.0538H11.0538H11.0538H11.0538H11.0538H11.0538H11.0538H11.0538H11.0538H11.0538H11.0538H11.0538H11.0538H11.0538H11.0538H11.0539H11.0539H11.0539H11.0539H11.0539H11.0539H11.0539H11.0539H11.0539H11.0539H11.0539H11.0539H11.0539H11.0539H11.0539H11.0539H11.054H11.054H11.054H11.054H11.054H11.054H11.054H11.054H11.054H11.054H11.054H11.054H11.054H11.054H11.054H11.054H11.054H11.0541H11.0541H11.0541H11.0541H11.0541H11.0541H11.0541H11.0541H11.0541H11.0541H11.0541H11.0541H11.0541H11.0541H11.0541H11.0541H11.0541H11.0542H11.0542H11.0542H11.0542H11.0542H11.0542H11.0542H11.0542H11.0542H11.0542H11.0542H11.0542H11.0542H11.0542H11.0542H11.0542H11.0542H11.0542H11.0543H11.0543H11.0543H11.0543H11.0543H11.0543H11.0543H11.0543H11.0543H11.0543H11.0543H11.0543H11.0543H11.0543H11.0543H11.0543H11.0543H11.0544H11.0544H11.0544H11.0544H11.0544H11.0544H11.0544H11.0544H11.0544H11.0544H11.0544C11.3951 13.2344 12.294 13.3099 12.8828 14.0616C12.4886 14.3698 11.8281 14.9771 11.8281 16.0616C11.8281 16.7464 12.0512 17.2491 12.346 17.612C12.6261 17.9568 12.9563 18.1554 13.134 18.2622L13.1435 18.2679L13.1435 18.2679C13.1555 18.2752 13.1662 18.2816 13.1758 18.2874C13.1477 18.3634 13.1092 18.4607 13.0606 18.5734C12.9415 18.8493 12.7677 19.2039 12.5498 19.5515C12.3299 19.9022 12.0775 20.2258 11.8067 20.4568C11.5355 20.6882 11.2828 20.7962 11.049 20.7962C10.7724 20.7962 10.5808 20.718 10.3448 20.6176C10.3447 20.6176 10.3447 20.6176 10.3446 20.6176L10.3368 20.6142C10.0853 20.5072 9.79756 20.3848 9.34791 20.3848C9.18858 20.3848 9.03491 20.4212 8.9106 20.4582C8.78599 20.4952 8.65696 20.5436 8.54432 20.5858L8.53876 20.5879C8.53858 20.588 8.53841 20.588 8.53823 20.5881C8.207 20.7117 7.92366 20.8131 7.61337 20.8131H7.60413C7.36561 20.8112 7.08561 20.6872 6.77441 20.3899C6.4655 20.0948 6.16861 19.6679 5.90884 19.166C5.38497 18.1539 5.07129 16.9551 5.07129 16.1923C5.07129 14.9261 5.53785 14.2145 6.04299 13.8086C6.57182 13.3837 7.18865 13.2583 7.4992 13.2583C7.76028 13.2583 8.06493 13.3641 8.43082 13.4991Z" stroke="black"/>
<path d="M10.1049 11.3981C10.2739 11.2088 10.4614 11.0611 10.6461 10.9582C10.4881 11.5589 10.096 11.9671 9.67851 12.1404C9.75213 11.8866 9.8985 11.6293 10.1049 11.3981Z" stroke="black"/>
</svg>
