<svg width="49" height="54" viewBox="0 0 49 54" fill="none" xmlns="http://www.w3.org/2000/svg">
<path d="M3.09981 23.2917C1.45832 10.9577 11.0543 0 23.4971 0V0C36.6133 0 46.3817 12.1068 43.6092 24.9267L42.9987 27.7499C42.2897 31.0281 40.8695 34.1107 38.8384 36.7798L26.8841 52.4894C26.2754 53.2893 25.1015 53.3701 24.389 52.6611L9.72591 38.0709C6.2436 34.6059 4.00418 30.0871 3.35611 25.2175L3.09981 23.2917Z" fill="#1D1D1D"/>
<path fill-rule="evenodd" clip-rule="evenodd" d="M32.6231 23.6274C33.0157 27.5503 31.0882 31.3238 25.5422 31.9641C19.4882 32.6634 16.5784 29.9847 15.6541 27.3617C14.09 22.9286 16.3027 19.1199 21.6821 18.0218C26.8316 16.9706 32.1262 18.6676 32.6231 23.6274Z" fill="white"/>
<path fill-rule="evenodd" clip-rule="evenodd" d="M21.3007 24.2396C21.0793 24.255 20.8583 24.2044 20.6656 24.0942C20.473 23.984 20.3174 23.8191 20.2185 23.6204C20.1196 23.4217 20.0818 23.1981 20.1101 22.978C20.1383 22.7578 20.2311 22.551 20.3769 22.3837C20.5227 22.2163 20.7149 22.096 20.9291 22.0379C21.1433 21.9798 21.3699 21.9865 21.5803 22.0573C21.7907 22.128 21.9753 22.2596 22.1109 22.4353C22.2465 22.6111 22.3269 22.8231 22.3419 23.0445C22.3622 23.341 22.264 23.6335 22.0687 23.8576C21.8734 24.0817 21.5972 24.2191 21.3007 24.2396Z" fill="#1D1D1D"/>
<path fill-rule="evenodd" clip-rule="evenodd" d="M26.3015 23.4112C26.0803 23.4261 25.8596 23.3752 25.6674 23.2647C25.4751 23.1543 25.3199 22.9893 25.2214 22.7907C25.1229 22.5921 25.0854 22.3687 25.1139 22.1488C25.1423 21.9289 25.2353 21.7224 25.381 21.5553C25.5268 21.3882 25.7189 21.2681 25.9329 21.2102C26.1469 21.1523 26.3733 21.1591 26.5835 21.2298C26.7936 21.3005 26.9781 21.432 27.1135 21.6075C27.249 21.7831 27.3293 21.9948 27.3445 22.216C27.3547 22.363 27.3357 22.5106 27.2888 22.6503C27.2419 22.7899 27.1679 22.919 27.071 23.03C26.9741 23.141 26.8563 23.2318 26.7242 23.2972C26.5922 23.3626 26.4486 23.4014 26.3015 23.4112Z" fill="#1D1D1D"/>
<path fill-rule="evenodd" clip-rule="evenodd" d="M20.7183 23.0236C20.6576 23.0277 20.5972 23.0138 20.5445 22.9835C20.4918 22.9532 20.4492 22.908 20.4222 22.8536C20.3952 22.7991 20.385 22.7379 20.3928 22.6776C20.4006 22.6174 20.4261 22.5608 20.4661 22.515C20.5061 22.4692 20.5587 22.4364 20.6174 22.4205C20.6761 22.4047 20.7381 22.4066 20.7957 22.426C20.8533 22.4455 20.9038 22.4815 20.9409 22.5297C20.9779 22.5778 20.9999 22.6359 21.004 22.6965C21.0067 22.7368 21.0015 22.7772 20.9887 22.8154C20.9758 22.8537 20.9555 22.889 20.929 22.9194C20.9024 22.9497 20.8702 22.9746 20.834 22.9925C20.7979 23.0104 20.7585 23.0209 20.7183 23.0236Z" fill="white"/>
<path fill-rule="evenodd" clip-rule="evenodd" d="M25.7203 22.1958C25.6596 22.2 25.5991 22.1862 25.5463 22.156C25.4936 22.1258 25.451 22.0806 25.4239 22.0262C25.3968 21.9718 25.3865 21.9105 25.3942 21.8502C25.402 21.7899 25.4274 21.7333 25.4674 21.6875C25.5073 21.6417 25.56 21.6087 25.6186 21.5928C25.6773 21.5769 25.7394 21.5788 25.797 21.5982C25.8546 21.6176 25.9052 21.6537 25.9423 21.7019C25.9794 21.75 26.0013 21.8081 26.0054 21.8687C26.0109 21.9499 25.9839 22.0299 25.9305 22.0912C25.877 22.1525 25.8014 22.1901 25.7203 22.1958Z" fill="white"/>
<path fill-rule="evenodd" clip-rule="evenodd" d="M20.5272 23.5172C20.4948 23.519 20.4624 23.5112 20.4343 23.4948C20.4062 23.4784 20.3836 23.454 20.3693 23.4248C20.355 23.3956 20.3496 23.3628 20.3538 23.3305C20.358 23.2982 20.3717 23.2679 20.3931 23.2434C20.4144 23.2188 20.4426 23.2011 20.474 23.1925C20.5053 23.1838 20.5386 23.1846 20.5695 23.1948C20.6004 23.2049 20.6277 23.224 20.6478 23.2495C20.668 23.2751 20.6801 23.306 20.6828 23.3385C20.6846 23.3605 20.682 23.3826 20.6751 23.4036C20.6682 23.4246 20.6572 23.444 20.6427 23.4606C20.6282 23.4773 20.6105 23.4908 20.5907 23.5006C20.5709 23.5103 20.5493 23.5159 20.5272 23.5172Z" fill="white"/>
<path fill-rule="evenodd" clip-rule="evenodd" d="M25.5283 22.6892C25.4958 22.6909 25.4635 22.6831 25.4355 22.6665C25.4075 22.65 25.3849 22.6256 25.3707 22.5964C25.3565 22.5672 25.3512 22.5344 25.3555 22.5021C25.3597 22.4699 25.3735 22.4396 25.3948 22.4151C25.4162 22.3906 25.4444 22.373 25.4758 22.3644C25.5071 22.3558 25.5403 22.3567 25.5712 22.3668C25.6021 22.377 25.6293 22.3961 25.6494 22.4216C25.6696 22.4472 25.6817 22.4781 25.6844 22.5105C25.6862 22.5325 25.6835 22.5547 25.6766 22.5757C25.6697 22.5968 25.6586 22.6162 25.6441 22.6328C25.6295 22.6495 25.6118 22.663 25.5919 22.6727C25.572 22.6824 25.5504 22.688 25.5283 22.6892Z" fill="white"/>
<path fill-rule="evenodd" clip-rule="evenodd" d="M29.2827 27.193C29.2276 27.1779 29.1687 27.1851 29.1188 27.213C29.069 27.241 29.0321 27.2875 29.0163 27.3425C28.622 28.7439 27.4721 28.901 27.0921 28.9529C26.2902 29.0632 25.4955 28.5961 25.0984 27.8405C26.2339 27.5763 28.0534 26.7132 28.178 25.5026C28.3865 23.4786 25.4177 24.9467 24.2777 25.1254C23.1377 25.3041 20.0531 24.8496 20.8583 26.6476C21.3034 27.6403 23.4857 27.9944 24.581 27.9199C24.4714 28.3935 24.2126 28.8193 23.8428 29.1347C23.4729 29.4502 23.0116 29.6385 22.5267 29.6721C21.6266 29.7272 20.9091 29.163 20.4794 28.6887C20.4405 28.6479 20.3872 28.624 20.3309 28.6219C20.2746 28.6198 20.2197 28.6399 20.1779 28.6777C20.1361 28.7155 20.1108 28.7682 20.1072 28.8244C20.1037 28.8807 20.1223 28.9361 20.159 28.9788C20.6868 29.5612 21.5157 30.2567 22.4721 30.2655C22.5228 30.2655 22.5741 30.2655 22.6248 30.26C23.376 30.2087 23.9777 29.8315 24.4608 29.5287C24.7145 29.3693 24.934 29.232 25.127 29.1801C25.2735 29.1973 25.4182 29.2272 25.5594 29.2695C25.9753 29.3759 26.6045 29.5265 27.214 29.4586C27.3882 29.4437 28.9292 29.2623 29.4327 27.4577C29.4476 27.4027 29.4403 27.3441 29.4122 27.2945C29.3841 27.2449 29.3375 27.2085 29.2827 27.193Z" fill="#1D1D1D"/>
<path fill-rule="evenodd" clip-rule="evenodd" d="M22.694 28.3649C22.6711 28.3646 22.6486 28.371 22.6293 28.3835C22.6101 28.396 22.595 28.4139 22.5859 28.435C22.5769 28.456 22.5743 28.4793 22.5785 28.5019C22.5827 28.5244 22.5935 28.5452 22.6095 28.5616C22.6255 28.578 22.646 28.5893 22.6685 28.594C22.6909 28.5987 22.7142 28.5967 22.7355 28.5882C22.7568 28.5796 22.7751 28.5649 22.788 28.546C22.8009 28.5271 22.8079 28.5047 22.8082 28.4818C22.8083 28.4512 22.7964 28.4218 22.7751 28.3999C22.7537 28.3781 22.7246 28.3655 22.694 28.3649Z" fill="#1D1D1D"/>
<path fill-rule="evenodd" clip-rule="evenodd" d="M23.582 28.3026C23.559 28.3015 23.5361 28.3073 23.5164 28.3193C23.4967 28.3313 23.481 28.3489 23.4713 28.3698C23.4617 28.3907 23.4585 28.4141 23.4622 28.4369C23.4659 28.4596 23.4763 28.4808 23.4921 28.4976C23.5079 28.5144 23.5283 28.5261 23.5508 28.5312C23.5733 28.5364 23.5968 28.5346 23.6183 28.5263C23.6398 28.518 23.6584 28.5034 23.6715 28.4845C23.6847 28.4656 23.692 28.4432 23.6923 28.4201C23.6929 28.39 23.6817 28.3608 23.6611 28.3389C23.6405 28.3169 23.6121 28.3039 23.582 28.3026Z" fill="#1D1D1D"/>
<path fill-rule="evenodd" clip-rule="evenodd" d="M23.123 28.9921C23.1002 28.992 23.0779 28.9986 23.0589 29.0112C23.0399 29.0237 23.0251 29.0416 23.0162 29.0626C23.0074 29.0836 23.005 29.1067 23.0093 29.1291C23.0136 29.1514 23.0244 29.172 23.0404 29.1883C23.0564 29.2045 23.0768 29.2156 23.0991 29.2202C23.1214 29.2248 23.1446 29.2227 23.1657 29.2142C23.1868 29.2057 23.2049 29.191 23.2177 29.1722C23.2306 29.1534 23.2375 29.1312 23.2377 29.1084C23.2379 29.0933 23.235 29.0782 23.2293 29.0641C23.2236 29.05 23.2152 29.0372 23.2046 29.0264C23.1939 29.0156 23.1812 29.007 23.1672 29.0011C23.1532 28.9952 23.1382 28.9921 23.123 28.9921Z" fill="#1D1D1D"/>
<path fill-rule="evenodd" clip-rule="evenodd" d="M26.1355 27.9082C26.1132 27.9136 26.093 27.9255 26.0774 27.9423C26.0619 27.9592 26.0517 27.9803 26.0481 28.0029C26.0446 28.0256 26.0479 28.0488 26.0575 28.0696C26.0672 28.0904 26.0828 28.1079 26.1024 28.1198C26.1219 28.1317 26.1446 28.1375 26.1675 28.1366C26.1905 28.1356 26.2126 28.1278 26.2311 28.1142C26.2495 28.1007 26.2636 28.0819 26.2714 28.0604C26.2793 28.0388 26.2805 28.0154 26.275 27.9932C26.2677 27.9634 26.2489 27.9378 26.2228 27.9219C26.1966 27.906 26.1653 27.9011 26.1355 27.9082Z" fill="#1D1D1D"/>
<path fill-rule="evenodd" clip-rule="evenodd" d="M27.1194 27.7202C27.1121 27.6904 27.0933 27.6648 27.067 27.6489C27.0408 27.633 27.0094 27.6282 26.9796 27.6355C26.9498 27.6429 26.9242 27.6617 26.9083 27.6879C26.8924 27.7141 26.8876 27.7456 26.8949 27.7753C26.9024 27.8051 26.9213 27.8307 26.9475 27.8466C26.9737 27.8625 27.0052 27.8675 27.035 27.8603C27.0498 27.8567 27.0637 27.8502 27.0759 27.8412C27.0882 27.8322 27.0985 27.8208 27.1064 27.8078C27.1142 27.7948 27.1194 27.7803 27.1216 27.7653C27.1239 27.7503 27.1231 27.7349 27.1194 27.7202Z" fill="#1D1D1D"/>
<path fill-rule="evenodd" clip-rule="evenodd" d="M26.7056 28.4146C26.6834 28.4199 26.6634 28.4317 26.6479 28.4485C26.6324 28.4652 26.6223 28.4862 26.6187 28.5087C26.6152 28.5312 26.6184 28.5543 26.6279 28.575C26.6375 28.5957 26.653 28.6131 26.6725 28.625C26.6919 28.6369 26.7145 28.6428 26.7373 28.6418C26.7601 28.6409 26.7821 28.6332 26.8005 28.6198C26.8189 28.6064 26.8329 28.5878 26.8408 28.5664C26.8486 28.5449 26.85 28.5217 26.8446 28.4995C26.8373 28.4699 26.8186 28.4444 26.7926 28.4285C26.7665 28.4126 26.7353 28.4076 26.7056 28.4146Z" fill="#1D1D1D"/>
<path fill-rule="evenodd" clip-rule="evenodd" d="M21.5377 25.8627C21.648 25.8109 21.8228 25.7017 22.365 25.9576C22.9071 26.2135 20.9901 26.1197 21.5377 25.8627Z" fill="white"/>
<path fill-rule="evenodd" clip-rule="evenodd" d="M22.7082 25.9868C22.738 25.9487 22.7848 25.8693 22.9288 26.0519C23.0727 26.2344 22.5609 26.1743 22.7082 25.9868Z" fill="white"/>
<path d="M24.7631 23.4173H24.7669C24.4965 23.0787 24.324 22.6724 24.2683 22.2426C24.2126 21.8128 24.2757 21.3759 24.4507 20.9795C24.6258 20.583 24.9062 20.2421 25.2614 19.9938C25.6167 19.7455 26.0331 19.5993 26.4656 19.5711C26.5279 19.5667 26.5902 19.565 26.6515 19.5656C27.1026 19.5699 27.5432 19.7025 27.9216 19.9481C28.3001 20.1936 28.6008 20.5418 28.7886 20.952C28.9764 21.3622 29.0435 21.8174 28.9821 22.2644C28.9207 22.7113 28.7332 23.1315 28.4417 23.4758C28.3264 23.6032 28.2817 23.7984 28.456 23.8547C28.5081 23.874 28.565 23.8764 28.6186 23.8618C28.6722 23.8472 28.7198 23.8161 28.7549 23.7731C29.2379 23.2147 29.48 22.4877 29.4283 21.7512C29.3776 21.0468 29.0645 20.387 28.5508 19.9023C28.0372 19.4175 27.3604 19.1431 26.6542 19.1332C26.5809 19.1332 26.5086 19.1332 26.4336 19.1398C25.9372 19.1722 25.4584 19.3362 25.0464 19.615C24.6344 19.8937 24.3041 20.2772 24.0895 20.7259C23.8748 21.1747 23.7836 21.6725 23.8251 22.1682C23.8666 22.6639 24.0394 23.1396 24.3257 23.5464C24.4084 23.6517 24.5463 23.7311 24.6715 23.703C24.7967 23.6749 24.8816 23.5795 24.7631 23.4173Z" fill="#1D1D1D"/>
<path d="M19.9251 25.212C19.3954 25.0475 18.9399 24.7029 18.6375 24.2379C18.3351 23.7729 18.2048 23.2168 18.2692 22.6659C18.3336 22.115 18.5887 21.6039 18.9902 21.2212C19.3917 20.8386 19.9144 20.6083 20.4678 20.5705C20.5301 20.5666 20.5919 20.5644 20.6537 20.565C21.0408 20.568 21.4214 20.6658 21.7621 20.8498C22.1028 21.0338 22.3932 21.2984 22.608 21.6205C22.8229 21.9427 22.9556 22.3125 22.9945 22.6977C23.0335 23.0829 22.9776 23.4718 22.8316 23.8305H22.8355C22.8178 23.9408 22.8283 24.1035 23.0092 24.0511C23.1901 23.9987 23.2927 23.8272 23.3335 23.6838C23.3332 23.6861 23.3332 23.6886 23.3335 23.6909C23.4501 23.2764 23.4696 22.8405 23.3903 22.4172C23.311 21.9939 23.1352 21.5946 22.8765 21.2503C22.6177 20.906 22.2831 20.6261 21.8985 20.4322C21.5139 20.2383 21.0898 20.1358 20.6592 20.1326C20.5864 20.1326 20.5136 20.1326 20.4386 20.1386C19.8099 20.181 19.2138 20.4336 18.7462 20.8559C18.2785 21.2782 17.9666 21.8456 17.8606 22.4667C17.7546 23.0878 17.8606 23.7265 18.1617 24.28C18.4627 24.8335 18.9413 25.2696 19.5203 25.5181C19.747 25.5793 19.8617 25.5733 19.9918 25.4789C20.122 25.3846 20.0658 25.2611 19.9251 25.212Z" fill="#1D1D1D"/>
<path fill-rule="evenodd" clip-rule="evenodd" d="M24.4387 17.5514C24.4045 17.5145 24.0587 15.4452 23.2921 14.6246C24.34 13.7273 24.9571 10.8682 22.9496 9.68741C20.9421 8.50662 19.2335 10.1678 19.0311 10.6211C18.7317 10.1352 16.4594 7.7334 13.9258 9.4078C11.3921 11.0822 12.6115 13.6214 12.6115 13.6214C10.8296 13.842 7.53758 17.9331 10.8467 21.2278C14.1557 24.5226 19.1282 20.6096 17.247 17.7831C16.7677 16.8654 18.2265 18.7951 18.2265 18.7951C18.2265 18.7951 21.5764 16.8996 24.4393 17.5514H24.4387Z" fill="white"/>
<path fill-rule="evenodd" clip-rule="evenodd" d="M33.9441 23.4951C33.7786 21.8317 33.1416 20.3867 32.0871 19.2368C33.3358 17.408 32.0574 15.3492 29.109 14.4536C27.4704 13.9572 26.8312 15.6117 26.6051 16.5493C25.9745 16.4536 25.3379 16.4027 24.7002 16.3971C24.5976 16.3971 24.4933 16.4015 24.3902 16.4026C24.3917 16.4058 24.393 16.4091 24.3941 16.4125C24.1393 15.759 23.8426 15.0073 23.6677 14.5622C24.4398 14.2864 26.0789 11.5465 24.0367 9.57541C22.0512 7.6567 19.7007 8.87223 19.1778 10.0784C19.1778 10.0784 17.006 7.33296 13.9495 9.10938C11.46 10.556 12.0903 13.056 12.0903 13.056C12.0903 13.056 7.88836 15.6294 9.06474 19.5231C9.8716 22.194 11.9745 23.3462 13.9534 23.2877C13.698 24.699 13.8431 26.2262 14.4012 27.8035C15.6239 31.2698 19.0339 33.3639 23.5216 33.4041C24.2477 33.4088 24.9734 33.3685 25.6945 33.2833C28.6313 32.9442 30.9411 31.7463 32.375 29.8193C33.6452 28.1118 34.1873 25.925 33.9441 23.4951ZM12.6755 14.3824C13.222 15.625 14.592 16.2024 15.7088 16.2024C16.6536 16.2024 17.1703 15.8312 17.4058 15.4033C16.3844 15.968 15.3437 15.7397 14.5964 15.3448C14.565 15.3305 14.5347 15.3211 14.5027 15.3056C14.1722 15.1486 13.8839 14.9151 13.6616 14.6245C13.6291 14.5857 13.5994 14.5446 13.5728 14.5015C12.7968 13.3549 12.9557 11.568 13.9263 10.6244C15.8169 8.7862 18.7797 9.74197 19.1558 12.3925C19.361 11.8515 19.4746 10.8886 19.4746 10.8886C19.4806 10.8786 19.4889 10.8693 19.495 10.8599C19.501 10.8505 19.495 10.8549 19.495 10.8538C19.5054 10.8389 19.5176 10.8262 19.5281 10.8114C19.5518 10.7788 19.576 10.7463 19.6036 10.7143C20.4226 9.70061 21.8218 9.57486 22.7627 10.4385C23.8106 11.4004 23.5221 13.099 22.0308 14.2776C22.3871 15.1474 23.1405 17.2045 23.1405 17.2045H23.1692C20.341 17.1444 18.1052 18.339 18.1052 18.339L16.9194 17.0368L16.7302 17.2089C18.0748 18.9831 17.6187 21.4947 14.7089 21.9999C11.1423 22.6193 8.28269 17.6281 12.6755 14.3824ZM25.5418 31.9641C24.8753 32.0425 24.2047 32.0794 23.5337 32.0744C18.8309 32.032 16.4699 29.6742 15.6537 27.3601C15.106 25.8081 15.0233 24.3334 15.3779 23.0241C16.8543 22.5062 18.0197 21.246 18.1316 19.3995C19.094 18.7802 20.2825 18.3064 21.6856 18.0207C22.6746 17.8169 23.6822 17.7173 24.6919 17.7235C28.7257 17.7599 32.2272 19.6383 32.6265 23.6247C33.0131 27.5504 31.0878 31.3238 25.5418 31.9641Z" fill="#1D1D1D"/>
<path fill-rule="evenodd" clip-rule="evenodd" d="M30.9458 18.1366C30.9391 18.1471 30.9331 18.1554 30.927 18.1659C29.9966 17.5041 28.8963 17.0364 27.6924 16.7518C27.7288 16.3183 27.913 15.7651 28.4772 15.5567C28.6498 15.4938 28.8561 15.4624 29.1864 15.5655C30.9458 16.0999 31.4989 17.2476 30.9458 18.1366Z" fill="white"/>
</svg>
