<svg width="22" height="22" viewBox="0 0 22 22" fill="none" xmlns="http://www.w3.org/2000/svg">
<path d="M15.9201 1.11188L18.9201 1.11188C19.1986 1.11075 19.4743 1.1678 19.7294 1.27937C19.9846 1.39094 20.2137 1.55458 20.402 1.7598C20.5902 1.96503 20.7336 2.20731 20.8228 2.47113C20.912 2.73496 20.9452 3.01451 20.9201 3.29188C20.5857 6.36905 19.5342 9.32488 17.8501 11.9219C16.3148 14.3381 14.2663 16.3865 11.8501 17.9219C9.2413 19.6119 6.27109 20.6636 3.1801 20.9919C2.90356 21.0169 2.62486 20.984 2.36172 20.8954C2.09859 20.8068 1.85679 20.6643 1.65172 20.4771C1.44665 20.2899 1.28281 20.0621 1.17062 19.8081C1.05843 19.5541 1.00036 19.2795 1.0001 19.0019L1.0001 16.0019C0.99532 15.5166 1.16718 15.0461 1.48363 14.6781C1.80008 14.3102 2.23954 14.0698 2.7201 14.0019C3.68016 13.8753 4.62282 13.6404 5.5301 13.3019C5.88802 13.1673 6.27701 13.1382 6.65098 13.218C7.02494 13.2977 7.36821 13.483 7.6401 13.7519L8.9101 15.0219C11.4136 13.5983 13.4865 11.5254 14.9101 9.02188L13.6401 7.75188C13.3712 7.47999 13.1859 7.13673 13.1062 6.76276C13.0264 6.3888 13.0556 5.99981 13.1901 5.64188C13.5286 4.73461 13.7635 3.79195 13.8901 2.83188C13.9586 2.34612 14.2033 1.90248 14.5776 1.58535C14.9519 1.26822 15.4297 1.09971 15.9201 1.11188Z" stroke="#9A99A2" stroke-width="2" stroke-linecap="round" stroke-linejoin="round"/>
</svg>
