<svg width="24" height="24" viewBox="0 0 24 24" fill="none" xmlns="http://www.w3.org/2000/svg">
<g clip-path="url(#clip0)">
<circle cx="17.6697" cy="12.208" r="2.5" transform="rotate(28.7053 17.6697 12.208)" fill="#17A770"/>
<circle cx="16.1564" cy="14.6023" r="3.67722" transform="rotate(28.7053 16.1564 14.6023)" fill="#FE3A0F"/>
<path fill-rule="evenodd" clip-rule="evenodd" d="M18.7829 17.1802C18.782 17.1795 18.7807 17.1796 18.78 17.1804C17.6558 18.3256 15.8671 18.6366 14.3902 17.8278C12.6089 16.8523 11.9556 14.6176 12.9311 12.8363C12.9761 12.7542 13.0237 12.6744 13.0739 12.5971C13.0775 12.5915 13.0763 12.5841 13.0711 12.5799C13.066 12.5757 13.0585 12.5761 13.0538 12.5808C11.561 14.0564 9.56704 14.9166 7.46828 14.9894C6.99265 15.0059 6.51959 14.9817 6.05384 14.9184C5.21537 14.8046 4.44061 15.5781 4.88377 16.2989C5.00263 16.4922 5.12947 16.6813 5.26414 16.8655C6.2964 18.2774 7.73803 19.3377 9.39343 19.9024C11.0488 20.4672 12.8379 20.509 14.5179 20.0223C16.1972 19.5357 17.6862 18.5446 18.7832 17.1833C18.784 17.1824 18.7838 17.181 18.7829 17.1802Z" fill="#FE3A0F"/>
<path d="M18.4884 10.7656V10.7656C19.4386 10.3162 20.1413 9.46933 20.4074 8.45247L20.5096 8.06222" stroke="#17A770" stroke-linecap="round" stroke-linejoin="round"/>
<path d="M6.04351 6.86717C6.70882 9.56933 3.97153 8.8103 5.48748 12.3778" stroke="#FF4C00" stroke-linecap="round" stroke-linejoin="round"/>
<path d="M9.04351 6.86717C9.70882 9.56933 6.97153 8.8103 8.48748 12.3778" stroke="#FF4C00" stroke-linecap="round" stroke-linejoin="round"/>
<path d="M12.0435 6.86717C12.7088 9.56933 9.97153 8.8103 11.4875 12.3778" stroke="#FF4C00" stroke-linecap="round" stroke-linejoin="round"/>
</g>
<defs>
<clipPath id="clip0">
<rect width="24" height="24" fill="white"/>
</clipPath>
</defs>
</svg>
